<?xml version="1.0" encoding="UTF-8"?>
<svg xmlns="http://www.w3.org/2000/svg" viewBox="0 0 783.7 439.34">
  <defs>
    <style>
      .cls-1 {
        fill: #443f40;
      }

      .cls-2 {
        fill: #e75009;
      }
    </style>
  </defs>
  <g id="Shape_bottom_Orange" data-name="Shape bottom / Orange">
    <path class="cls-2" d="M489.64,203.44l-397.33,1.09.11,138.34c.01,15.48,5.38,27.8,14.21,36.91,7.29,7.22,15.83,11.04,25.2,12.71l97.36,17.27,55.65,10.92,83.88,16.59c18.74,3.71,35.61,1.96,53.49-1.72l78.11-16.1,148.46-28.7c9.83-1.9,18.56-4.45,26.82-10.68,8.71-8.73,15.63-20.48,15.68-35.81l.43-141.13-202.07.31Z"/>
  </g>
  <g id="Shape_top_Grey" data-name="Shape top / Grey">
    <path class="cls-1" d="M637.48.24l-492.89.15c-30.92-2.21-52.96,29.9-52.74,69.45l.64,117.13,389.93-.71,209.13-.37.29-117.68c.1-39.89-23.33-71.3-54.37-67.97Z"/>
  </g>
</svg>